# MagicaVoxel @ Ephtracy

# material
mtllib Torch.mtl
usemtl palette

# normals
vn -1 0 0
vn 1 0 0
vn 0 0 1
vn 0 0 -1
vn 0 -1 0
vn 0 1 0

# texcoords
vt 0.158203 0.5
vt 0.189453 0.5
vt 0.310547 0.5

# verts
v -3 0 -6
v -3 0 -8
v -3 8 -6
v -3 8 -8
v -3 9 -6
v -3 9 -7
v -3 10 -6
v -3 10 -7
v -3 10 -8
v -1 0 -6
v -1 0 -8
v -1 8 -6
v -1 8 -8
v -1 9 -7
v -1 9 -8
v -1 10 -6
v -1 10 -7
v -1 10 -8
v -3 0 -6
v -3 8 -6
v -3 9 -6
v -3 10 -6
v -2 9 -6
v -2 10 -6
v -1 0 -6
v -1 8 -6
v -1 10 -6
v -3 0 -8
v -3 8 -8
v -3 10 -8
v -2 9 -8
v -2 10 -8
v -1 0 -8
v -1 8 -8
v -1 9 -8
v -1 10 -8
v -3 0 -6
v -1 0 -6
v -3 0 -8
v -1 0 -8
v -3 10 -6
v -2 10 -6
v -1 10 -6
v -3 10 -7
v -2 10 -7
v -1 10 -7
v -3 10 -8
v -2 10 -8
v -1 10 -8

# faces
f 3/3/1 2/3/1 1/3/1
f 4/3/1 2/3/1 3/3/1
f 5/1/1 4/1/1 3/1/1
f 6/1/1 4/1/1 5/1/1
f 7/2/1 6/2/1 5/2/1
f 8/1/1 4/1/1 6/1/1
f 8/2/1 6/2/1 7/2/1
f 9/1/1 4/1/1 8/1/1
f 10/3/2 11/3/2 12/3/2
f 12/3/2 11/3/2 13/3/2
f 12/1/2 13/1/2 14/1/2
f 14/1/2 13/1/2 15/1/2
f 12/1/2 14/1/2 16/1/2
f 14/2/2 15/2/2 17/2/2
f 16/1/2 14/1/2 17/1/2
f 17/2/2 15/2/2 18/2/2
f 23/1/3 21/1/3 20/1/3
f 23/2/3 22/2/3 21/2/3
f 24/2/3 22/2/3 23/2/3
f 25/3/3 20/3/3 19/3/3
f 26/1/3 23/1/3 20/1/3
f 26/3/3 20/3/3 25/3/3
f 26/1/3 24/1/3 23/1/3
f 27/1/3 24/1/3 26/1/3
f 29/1/4 30/1/4 31/1/4
f 31/1/4 30/1/4 32/1/4
f 28/3/4 29/3/4 33/3/4
f 29/1/4 31/1/4 34/1/4
f 33/3/4 29/3/4 34/3/4
f 31/2/4 32/2/4 35/2/4
f 34/1/4 31/1/4 35/1/4
f 35/2/4 32/2/4 36/2/4
f 39/3/5 38/3/5 37/3/5
f 40/3/5 38/3/5 39/3/5
f 41/2/6 42/2/6 44/2/6
f 42/1/6 43/1/6 45/1/6
f 44/2/6 42/2/6 45/2/6
f 45/1/6 43/1/6 46/1/6
f 44/1/6 45/1/6 47/1/6
f 45/2/6 46/2/6 48/2/6
f 47/1/6 45/1/6 48/1/6
f 48/2/6 46/2/6 49/2/6
